<?xml version="1.0" encoding="utf-8"?>
<!-- Generator: Adobe Illustrator 24.0.0, SVG Export Plug-In . SVG Version: 6.00 Build 0)  -->
<svg version="1.1" id="Layer_1" xmlns="http://www.w3.org/2000/svg" xmlns:xlink="http://www.w3.org/1999/xlink" x="0px" y="0px"
	 viewBox="0 0 1920 1080" style="enable-background:new 0 0 1920 1080;" xml:space="preserve">
<style type="text/css">
	.st0{fill:#1B1B1D;}
	.st1{fill:#EC008C;}
	.st2{fill:#FFFFFF;}
</style>
<g id="Layer_1_1_">
	<rect x="-18" y="-18" class="st0" width="1956" height="1116"/>
</g>
<g>
	<g>
		<path class="st1" d="M1167.4,555.9c0-29.7,3.4-53.2,10.1-70.4c6.7-17.2,17.6-32.1,32.7-44.8c15.1-12.6,26.5-24.2,34.4-34.7
			c7.8-10.5,11.8-22,11.8-34.7c0-30.8-13.2-46.1-39.7-46.1c-12.2,0-22.1,4.5-29.6,13.4c-7.5,9-11.5,21.1-11.9,36.4h-103.3
			c0.4-40.7,13.2-72.5,38.5-95.2c25.3-22.7,60.7-34.1,106.3-34.1c45.4,0,80.6,10.5,105.6,31.5c24.9,21,37.4,50.8,37.4,89.5
			c0,16.9-3.4,32.3-10.1,46.1c-6.7,13.9-17.5,28-32.4,42.5l-35.1,32.7c-10,9.6-16.9,19.4-20.8,29.5c-3.9,10.1-6,22.9-6.4,38.3
			H1167.4z"/>
	</g>
</g>
<circle class="st2" cx="1212" cy="648.8" r="51.6"/>
</svg>
