<?xml version="1.0" encoding="utf-8"?>
<!-- Generator: Adobe Illustrator 24.0.0, SVG Export Plug-In . SVG Version: 6.00 Build 0)  -->
<svg version="1.1" id="Layer_1" xmlns="http://www.w3.org/2000/svg" xmlns:xlink="http://www.w3.org/1999/xlink" x="0px" y="0px"
	 viewBox="0 0 1920 1080" style="enable-background:new 0 0 1920 1080;" xml:space="preserve">
<style type="text/css">
	.st0{fill:#1B1B1D;}
	.st1{fill:#FFFFFF;}
	.st2{fill:#EC008C;}
	.st3{fill:#3DD38A;}
</style>
<g id="Layer_1_1_">
	<rect x="-18" y="-18" class="st0" width="1956" height="1116"/>
</g>
<g id="Layer_2_1_">
	<g>
		<g>
			<g>
				<path class="st1" d="M1247.8,651.4l-3.2,3.1l0.5,2.7c-1.5,2.5-3.3,4.9-5.3,6.9c-6.2,6.2-14.8,10-24.2,10h-13.3
					c-6.3-0.5-12.4-1.4-18.2-2.6c-25.4-5.4-46.8-17.4-63.2-35.6c-3.8-4.2-7.2-8.6-10.3-13.4c-15.7-23.7-23.7-54-23.7-90.6V388.4
					h68.6V532c0,57.4,25.7,71,49.4,73.6c0.2,0,0.3,0,0.5,0.1c3.6,0.4,7.1,0.5,10.5,0.5c1.7,0,3.5,0,5.2-0.1c2.2,0.3,4.2,0.9,6.2,1.6
					l6.3,12.9l11.2,1.6c3.1,5.2,4.9,11.2,4.9,17.7C1249.7,643.9,1249,647.8,1247.8,651.4z"/>
				<path class="st2" d="M1344.7,388.4v146.8c0,43.1-11.6,77.4-34.3,102c-16.3,17.6-37.6,29.2-62.8,34.4l-2.5-14.4l-0.5-2.7l3.2-3.1
					l25.6-25l-28.6-4.2l-11.2-1.6l-6.3-12.9l-1-2c23.8-2.4,49.9-15.2,49.9-70.5V388.4H1344.7z"/>
				<path class="st3" d="M1227.2,607.7c-2-0.7-4.1-1.3-6.2-1.6c1.7-0.1,3.5-0.2,5.2-0.4L1227.2,607.7z"/>
				<path class="st3" d="M1247.5,671.6c-10,2.1-20.7,3.1-31.8,3.1c-4.6,0-9.1-0.2-13.6-0.6h13.3c9.5,0,18-3.8,24.2-10
					c2.1-2.1,3.9-4.4,5.3-6.9L1247.5,671.6z"/>
				<path class="st3" d="M1247.8,651.4c1.3-3.6,2-7.4,2-11.5c0-6.5-1.8-12.6-4.9-17.7l28.6,4.2L1247.8,651.4z"/>
			</g>
			<polygon class="st1" points="1247.5,671.6 1251.4,694.2 1215.7,675.4 1180.1,694.2 1183.9,671.5 1186.9,654.5 1158,626.3 
				1197.9,620.6 1205.2,605.7 1215.7,584.4 1226.2,605.7 1227.2,607.7 1233.6,620.6 1244.8,622.2 1273.4,626.3 1247.8,651.4 
				1244.6,654.5 1245,657.2 			"/>
		</g>
		<g>
			<polygon class="st1" points="1131.1,249.4 1096.8,300.8 1131.1,290.5 1100.2,338.5 1148.2,280.2 1117.4,285.4 			"/>
			<polygon class="st1" points="1317.5,245.8 1283.2,297.3 1317.5,287 1286.6,335 1334.6,276.7 1303.8,281.8 			"/>
		</g>
	</g>
</g>
</svg>
