<?xml version="1.0" encoding="utf-8"?>
<!-- Generator: Adobe Illustrator 24.0.0, SVG Export Plug-In . SVG Version: 6.00 Build 0)  -->
<svg version="1.1" id="Layer_1" xmlns="http://www.w3.org/2000/svg" xmlns:xlink="http://www.w3.org/1999/xlink" x="0px" y="0px"
	 viewBox="0 0 1000 1000" style="enable-background:new 0 0 1000 1000;" xml:space="preserve">
<style type="text/css">
	.st0{fill:#FFFFFF;}
	.st1{fill:#EC008C;}
	.st2{fill:#3DD38A;}
</style>
<g>
	<g>
		<g>
			<path class="st0" d="M567.9,882.7l-6.7,6.6l1,5.8c-3.1,5.3-6.9,10.3-11.3,14.6c-13.1,13.1-31.1,21.2-51.1,21.2h-28
				c-13.2-1.1-26-3-38.4-5.6c-53.4-11.3-98.7-36.7-133.1-75.1c-7.9-8.8-15.2-18.2-21.7-28.1c-33.1-49.9-49.9-113.9-49.9-190.9V328.4
				h144.5v302.8c0,121,54.1,149.6,104.1,155.1c0.4,0,0.7,0.1,1,0.1c7.5,0.8,15,1.1,22.1,1.1c3.6,0,7.3-0.1,11.1-0.3
				c4.6,0.7,8.9,1.9,13.2,3.4l13.4,27.1l23.7,3.4c6.6,10.9,10.4,23.7,10.4,37.4C572,867,570.6,875.2,567.9,882.7z"/>
			<path class="st1" d="M772.1,328.4v309.4c0,90.8-24.3,163.1-72.4,215c-34.3,37.1-79.3,61.6-132.4,72.6l-5.2-30.3l-1-5.8l6.7-6.6
				l54-52.7l-60.3-8.8l-23.7-3.4l-13.4-27.1l-2.1-4.2c50.2-5,105.1-32,105.1-148.7V328.4H772.1z"/>
			<path class="st2" d="M524.6,790.7c-4.2-1.6-8.6-2.7-13.2-3.4c3.6-0.1,7.3-0.4,11.1-0.8L524.6,790.7z"/>
			<path class="st2" d="M567.4,925.4c-21.1,4.4-43.5,6.6-67,6.6c-9.7,0-19.3-0.4-28.6-1.2h28c19.9,0,38-8.1,51.1-21.2
				c4.3-4.3,8.2-9.2,11.3-14.6L567.4,925.4z"/>
			<path class="st2" d="M567.9,882.7c2.7-7.5,4.2-15.7,4.2-24.1c0-13.7-3.8-26.5-10.4-37.4l60.3,8.8L567.9,882.7z"/>
		</g>
		<polygon class="st0" points="567.4,925.4 575.5,972.9 500.4,933.4 425.2,972.9 433.4,925.3 439.6,889.3 378.8,830 462.8,817.8 
			478.2,786.4 500.4,741.7 522.5,786.5 524.6,790.7 537.9,817.8 561.6,821.2 621.9,830 567.9,882.7 561.2,889.3 562.1,895.1 		"/>
	</g>
	<g>
		<polygon class="st0" points="322,35.5 249.7,143.8 322,122.2 257,223.3 358.1,100.5 293.1,111.3 		"/>
		<polygon class="st0" points="714.8,28 642.6,136.4 714.8,114.7 649.8,215.9 751,93 685.9,103.9 		"/>
	</g>
</g>
</svg>
