<?xml version="1.0" encoding="utf-8"?>
<!-- Generator: Adobe Illustrator 24.0.0, SVG Export Plug-In . SVG Version: 6.00 Build 0)  -->
<svg version="1.1" id="Layer_1" xmlns="http://www.w3.org/2000/svg" xmlns:xlink="http://www.w3.org/1999/xlink" x="0px" y="0px"
	 viewBox="0 0 2000 103.6" style="enable-background:new 0 0 2000 103.6;" xml:space="preserve">
<style type="text/css">
	.st0{display:none;}
	.st1{display:inline;fill:#FFFFFF;}
	.st2{display:inline;fill:#3DD38A;}
	.st3{display:inline;fill:#1B1B1D;}
	.st4{fill:url(#SVGID_1_);}
	.st5{fill:#1B1B1D;}
</style>
<g id="Layer_2_1_" class="st0">
	<rect x="-18" y="-665.5" class="st1" width="2036" height="786"/>
</g>
<g id="Layer_3" class="st0">
	<polygon class="st2" points="-36.9,99 64.2,43.8 220.4,35.6 301.1,23.4 341.9,35.6 351.1,23.4 396.1,32.6 437.9,66.3 488,46.9 
		510.5,61.2 530.9,36.7 581.9,34.6 648,44.3 690.7,25.6 709.6,38.7 753.5,33.6 788.2,43.8 830.1,16.4 865.3,21.7 908.2,14.4 
		927.1,47.4 1006.8,16.4 1137.5,61.2 1174.3,47.4 1186.5,29.5 1204.9,47.4 1244.7,54 1297.8,10.1 1308.1,36.7 1320.3,39.7 
		1336.7,47.4 1352,37.7 1365.3,42.8 1385.7,16.4 1399,33.6 1421.4,31.6 1472.5,68.3 1561.6,48.6 1639,58.1 1659.4,74.1 1732.9,84.7 
		1816.7,47.4 1863.6,40.7 1891.2,60.1 1909.6,47.4 1962.7,99 2018,60.1 2018,131.8 -36.9,131.8 	"/>
</g>
<g id="Layer_1_1_" class="st0">
	<polygon class="st3" points="-36.9,84 268.7,16.4 346.2,50.2 404.4,43.2 416.6,57.2 430.7,50.2 439,54.1 449.7,43.8 460.9,36.1 
		496.9,30.5 509.2,45.3 523.6,50.2 705.3,32.5 732.1,50.2 765.9,38.9 782.1,26.7 796.9,40.3 801.8,46.9 813.8,50.2 879.9,31.7 
		965.7,55.4 1010.1,37.8 1060.9,54.9 1131.4,31.4 1205.9,57 1247.8,63.8 1400,41.7 1495,57 1538.9,42.7 1566.2,63.1 1586.1,51 
		1608.3,43.7 1612.4,52.9 1616.5,63.8 1639,58.1 1705.3,51.9 1871,74.1 2018,46.3 2018,131.8 -36.9,131.8 	"/>
</g>
<g id="Layer_5">
	<linearGradient id="SVGID_1_" gradientUnits="userSpaceOnUse" x1="-22.6383" y1="98.5" x2="2017.8765" y2="98.5">
		<stop  offset="0" style="stop-color:#F25A28"/>
		<stop  offset="1" style="stop-color:#EC008C"/>
	</linearGradient>
	<polygon class="st4" points="-18,146.1 -18,86.1 1004.9,57.4 979,85.6 2018,50.9 2018,128.1 	"/>
</g>
<g id="Layer_4">
	<polygon class="st5" points="-18,146.1 -18,93.5 1000,59.3 974.1,87.6 2018,59.3 2018,128.1 	"/>
</g>
</svg>
