<?xml version="1.0" encoding="utf-8"?>
<!-- Generator: Adobe Illustrator 24.0.0, SVG Export Plug-In . SVG Version: 6.00 Build 0)  -->
<svg version="1.1" id="Layer_1" xmlns="http://www.w3.org/2000/svg" xmlns:xlink="http://www.w3.org/1999/xlink" x="0px" y="0px"
	 viewBox="0 0 2000 469.4" style="enable-background:new 0 0 2000 469.4;" xml:space="preserve">
<style type="text/css">
	.st0{display:none;}
	.st1{display:inline;}
	.st2{fill:#FFFFFF;}
	.st3{fill:#3DD38A;}
	.st4{fill:#1B1B1D;}
</style>
<g id="Layer_1_1_" class="st0">
	<g class="st1">
		<rect x="-18" y="-299.7" class="st2" width="2036" height="786"/>
	</g>
	<g id="Layer_3" class="st1">
		<polygon class="st3" points="-36.9,464.8 64.2,409.6 220.4,401.5 301.1,389.2 341.9,401.5 351.1,389.2 396.1,398.4 437.9,432.1 
			488,412.7 510.5,427 530.9,402.5 581.9,400.4 648,410.1 690.7,391.4 709.6,404.5 753.5,399.4 788.2,409.6 830.1,382.2 
			865.3,387.6 908.2,380.2 927.1,413.2 1006.8,382.2 1137.5,427 1174.3,413.2 1186.5,395.3 1204.9,413.2 1244.7,419.9 1297.8,375.9 
			1308.1,402.5 1320.3,405.5 1336.7,413.2 1352,403.5 1365.3,408.6 1385.7,382.2 1399,399.4 1421.4,397.4 1472.5,434.1 
			1561.6,414.4 1639,423.9 1659.4,439.9 1732.9,450.5 1816.7,413.2 1863.6,406.6 1891.2,426 1909.6,413.2 1962.7,464.8 2018,426 
			2018,497.6 -36.9,497.6 		"/>
	</g>
	<g class="st1">
		<polygon class="st4" points="-36.9,449.8 268.7,382.2 346.2,416 404.4,409 416.6,423.1 430.7,416 439,420 449.7,409.6 460.9,402 
			496.9,396.3 509.2,411.2 523.6,416 705.3,398.3 732.1,416 765.9,404.8 782.1,392.6 796.9,406.2 801.8,412.7 813.8,416 
			879.9,397.5 965.7,421.3 1010.1,403.7 1060.9,420.8 1131.4,397.3 1205.9,422.8 1247.8,429.6 1400,407.5 1495,422.8 1538.9,408.5 
			1566.2,428.9 1586.1,416.9 1608.3,409.5 1612.4,418.7 1616.5,429.6 1639,423.9 1705.3,417.7 1871,439.9 2018,412.1 2018,497.6 
			-36.9,497.6 		"/>
	</g>
</g>
<g id="Layer_2_1_" class="st0">
</g>
<g id="Layer_2">
	<g id="Layer_5">
		<polygon class="st3" points="-18,490.5 -18,430.5 1004.9,401.8 979,430 2018,395.2 2018,472.5 		"/>
	</g>
	<g id="Layer_4">
		<polygon class="st4" points="-18,490.5 -18,437.9 1000,403.7 974.1,432 2018,403.7 2018,472.5 		"/>
	</g>
</g>
</svg>
