<?xml version="1.0" encoding="utf-8"?>
<!-- Generator: Adobe Illustrator 26.1.0, SVG Export Plug-In . SVG Version: 6.00 Build 0)  -->
<svg version="1.1" id="Layer_1" xmlns="http://www.w3.org/2000/svg" xmlns:xlink="http://www.w3.org/1999/xlink" x="0px" y="0px"
	 viewBox="0 0 1080 543.48" style="enable-background:new 0 0 1080 543.48;" xml:space="preserve">
<style type="text/css">
	.st0{fill:#1B1B1D;}
	.st1{fill:#B3B3B3;}
	.st2{fill:#FFFFFF;}
</style>
<g>
	<rect y="0" class="st0" width="543.48" height="543.48"/>
	<g>
		<g>
			<g>
				<path class="st1" d="M397.24,134.98v142.89c0,41.91-11.24,75.32-33.42,99.31c-15.84,17.12-36.62,28.46-61.13,33.52l-2.42-14.01
					l-0.46-2.67l3.11-3.04l24.96-24.34l-27.85-4.06l-10.94-1.58l-6.18-12.51l-0.97-1.95c23.19-2.32,48.56-14.78,48.56-68.66V134.98
					H397.24z"/>
			</g>
			<path class="st2" d="M302.69,410.69l3.75,21.96l-34.7-18.25l-34.7,18.25l3.77-22.03c-24.67-5.22-45.6-16.95-61.48-34.67
				c-3.65-4.07-7.01-8.41-10.05-13c-15.3-23.03-23.04-52.6-23.04-88.15V134.98h66.74v139.83c0,55.86,24.99,69.08,48.07,71.65
				c0.17,0.02,0.32,0.03,0.49,0.05l10.21-20.68l10.21,20.69l0.97,1.95l6.18,12.51l10.94,1.58l27.85,4.06l-24.96,24.34l-3.11,3.04
				l0.46,2.67L302.69,410.69z"/>
		</g>
		<g>
			<polygon class="st0" points="278.26,346.53 252.16,385.68 278.26,377.85 254.77,414.4 291.32,370.02 267.82,373.94 			"/>
		</g>
	</g>
	<g>
		<g>
			<path class="st0" d="M700.78,0v89.38c0,8.94,2.2,15.81,6.6,20.64c4.4,4.81,10.86,7.24,19.36,7.24c8.52,0,15.05-2.42,19.59-7.24
				c4.54-4.83,6.81-11.71,6.81-20.64V0h36.38v89.15c0,13.35-2.84,24.63-8.5,33.84c-5.68,9.23-13.3,16.17-22.88,20.87
				c-9.58,4.68-20.26,7.01-32.02,7.01c-11.79,0-22.32-2.3-31.6-6.91c-9.3-4.61-16.64-11.57-22.03-20.87
				c-5.39-9.28-8.09-20.59-8.09-33.94V0H700.78z"/>
			<path class="st0" d="M862.08,121.29h47.67v28.09h-84.06V0h36.38V121.29z"/>
			<path class="st0" d="M1045.3,0v29.15h-39.57v120.23h-36.4V29.15h-39.57V0H1045.3z"/>
		</g>
		<g>
			<path class="st0" d="M741.22,346.43l-31.07-56.39h-8.73v56.39h-36.38V197.05h61.08c11.76,0,21.8,2.06,30.1,6.17
				c8.3,4.12,14.51,9.77,18.62,16.92c4.12,7.17,6.18,15.15,6.18,23.93c0,9.94-2.81,18.81-8.42,26.6
				c-5.59,7.81-13.85,13.35-24.78,16.61l34.48,59.16H741.22z M701.42,264.29h22.56c6.67,0,11.65-1.63,15-4.9
				c3.32-3.26,5-7.86,5-13.84c0-5.66-1.68-10.13-5-13.4c-3.34-3.26-8.33-4.88-15-4.88h-22.56V264.29z"/>
			<path class="st0" d="M907.41,320.04h-55.76l-8.94,26.39h-38.08l54.05-149.38h42.13l54.05,149.38h-38.51L907.41,320.04z
				 M898.05,291.95l-18.51-54.69l-18.3,54.69H898.05z"/>
			<path class="st0" d="M1018.28,318.34h47.67v28.09H981.9V197.05h36.38V318.34z"/>
		</g>
		<g>
			<path class="st0" d="M700.78,392.61v89.38c0,8.94,2.2,15.81,6.6,20.64c4.4,4.81,10.86,7.24,19.36,7.24
				c8.52,0,15.05-2.42,19.59-7.24c4.54-4.83,6.81-11.71,6.81-20.64v-89.38h36.38v89.15c0,13.35-2.84,24.63-8.5,33.84
				c-5.68,9.23-13.3,16.17-22.88,20.87c-9.58,4.68-20.26,7.01-32.02,7.01c-11.79,0-22.32-2.3-31.6-6.91
				c-9.3-4.61-16.64-11.57-22.03-20.87c-5.39-9.28-8.09-20.59-8.09-33.94v-89.15H700.78z"/>
			<path class="st0" d="M917.2,541.99l-30.43-45.75l-26.82,45.75h-41.28l47.88-75.97l-48.94-73.41h42.34l30.01,45.11l26.39-45.11
				h41.27l-47.45,75.33l49.37,74.05H917.2z"/>
			<path class="st0" d="M1024.88,421.75v30.22h48.73v28.09h-48.73v32.78H1080v29.15h-91.51V392.61H1080v29.15H1024.88z"/>
		</g>
	</g>
</g>
</svg>
