<?xml version="1.0" encoding="utf-8"?>
<!-- Generator: Adobe Illustrator 27.8.1, SVG Export Plug-In . SVG Version: 6.00 Build 0)  -->
<svg version="1.1" id="Layer_1" xmlns="http://www.w3.org/2000/svg" xmlns:xlink="http://www.w3.org/1999/xlink" x="0px" y="0px"
	 viewBox="0 0 3876 1116" style="enable-background:new 0 0 3876 1116;" xml:space="preserve">
<style type="text/css">
	.st0{fill:#FFFFFF;}
</style>
<g id="Layer_2_00000121990014215859559410000002681623744090384011_">
	<g id="Layer_1-2">
		<rect width="3876" height="1116"/>
	</g>
</g>
<g id="Layer_3">
</g>
<g>
	<path class="st0" d="M1572.2,514.8v133.9h-24.9l-3.1-17c-10.1,12.4-23.9,18.6-41.3,18.6c-15.7,0-28.4-4.9-38.2-14.6
		c-9.8-9.8-14.6-25.5-14.6-47.1v-73.8h28.3v70.9c0,13.1,2.6,23,7.8,29.8c5.2,6.8,13,10.2,23.3,10.2c10.8,0,19.3-4,25.4-11.9
		c6.1-7.9,9.2-18.8,9.2-32.6v-66.4H1572.2z"/>
	<path class="st0" d="M1599.9,465.7h28.3v183.1h-28.3V465.7z"/>
	<path class="st0" d="M1655.9,477.4h28.3v37.4h32.4v24.9h-32.4v69.8c0,5.2,1,8.9,3.1,11.1c2.1,2.2,5.7,3.3,10.7,3.3h21.5v24.9h-27.2
		c-12.7,0-22-3-27.7-8.9c-5.8-5.9-8.6-15.1-8.6-27.5V477.4z"/>
	<path class="st0" d="M1808.9,514.8v26.4h-12.6c-11.7,0-20.1,3.8-25.4,11.4s-7.8,17.2-7.8,28.9v67.2h-28.3V514.8h25.1l3.1,20.1
		c3.8-6.3,8.8-11.2,14.9-14.8c6.1-3.6,14.3-5.4,24.6-5.4H1808.9z"/>
	<path class="st0" d="M1949.9,624.2v24.6H1935c-8.7,0-15-1.8-18.8-5.5c-3.8-3.7-5.8-9-5.8-16c-10.1,15.3-24.9,23-44.2,23
		c-15,0-27-3.5-36.1-10.5c-9.1-7-13.6-16.6-13.6-28.8c0-13.8,4.9-24.4,14.7-31.8c9.8-7.4,24-11.1,42.6-11.1h33.7v-8.1
		c0-7.5-2.6-13.4-7.8-17.7c-5.2-4.3-12.5-6.4-21.7-6.4c-8.2,0-15,1.8-20.3,5.4c-5.3,3.6-8.5,8.3-9.5,14.3h-27.7
		c1.4-13.4,7.3-23.8,17.8-31.3c10.5-7.4,24.2-11.1,41.1-11.1c18,0,31.8,4.2,41.6,12.6c9.8,8.4,14.6,20.4,14.6,36.1v52.8
		c0,6.3,3,9.4,8.9,9.4H1949.9z M1907.5,589.1h-35.1c-8.7,0-15.4,1.7-20.1,5.1c-4.7,3.4-7.1,8.4-7.1,15c0,5.8,2.2,10.4,6.7,13.9
		c4.4,3.5,10.5,5.2,18.2,5.2c11.7,0,20.8-3.1,27.3-9.4s9.9-14.6,10.1-25.1V589.1z"/>
	<path class="st0" d="M1965.3,465.7h28.3v183.1h-28.3V465.7z"/>
	<path class="st0" d="M2141.4,514.8v133.9h-24.9l-3.1-17c-10.1,12.4-23.9,18.6-41.3,18.6c-15.7,0-28.4-4.9-38.2-14.6
		c-9.8-9.8-14.6-25.5-14.6-47.1v-73.8h28.3v70.9c0,13.1,2.6,23,7.8,29.8c5.2,6.8,13,10.2,23.3,10.2c10.8,0,19.3-4,25.4-11.9
		c6.1-7.9,9.2-18.8,9.2-32.6v-66.4H2141.4z"/>
	<path class="st0" d="M2207,580.2l-47.3-65.4h33l32.2,45.3l32.7-45.3h30.9l-47.6,65.4l50.5,68.5h-33l-35.3-48.7l-35.6,48.7h-30.6
		L2207,580.2z"/>
	<path class="st0" d="M2302.9,545.8c5.5-10.4,13.2-18.4,23-24.1c9.9-5.7,21.1-8.5,33.9-8.5c12.9,0,24.3,2.6,34.1,7.8
		c9.9,5.2,17.6,12.6,23.3,22.2c5.7,9.6,8.6,20.8,8.8,33.7c0,3.5-0.3,7.1-0.8,10.7h-101v1.6c0.7,11.7,4.4,20.9,11,27.7
		c6.6,6.8,15.4,10.2,26.4,10.2c8.7,0,16-2,22-6.1c5.9-4.1,9.9-9.9,11.8-17.4h28.3c-2.4,13.6-9,24.8-19.8,33.5
		c-10.7,8.7-24.1,13.1-40.2,13.1c-14,0-26.1-2.8-36.5-8.5c-10.4-5.7-18.4-13.6-24.1-23.9c-5.7-10.3-8.5-22.2-8.5-35.8
		C2294.7,568.3,2297.4,556.2,2302.9,545.8z M2397.2,567.2c-1.2-9.8-5.1-17.4-11.6-22.9c-6.5-5.5-14.8-8.2-24.7-8.2
		c-9.2,0-17.2,2.8-23.9,8.5c-6.7,5.7-10.6,13.2-11.6,22.6H2397.2z"/>
</g>
</svg>
