<?xml version="1.0" encoding="utf-8"?>
<!-- Generator: Adobe Illustrator 25.2.3, SVG Export Plug-In . SVG Version: 6.00 Build 0)  -->
<svg version="1.1" id="Layer_1" xmlns="http://www.w3.org/2000/svg" xmlns:xlink="http://www.w3.org/1999/xlink" x="0px" y="0px"
	 viewBox="0 0 428.43 428.43" style="enable-background:new 0 0 428.43 428.43;" xml:space="preserve">
<style type="text/css">
	.st0{fill:#CCCCCC;}
	.st1{fill:#F2F2F2;}
</style>
<g>
	<path class="st0" d="M324.67,144.28v125.75c0,36.89-9.89,66.29-29.41,87.4c-13.93,15.07-32.23,25.05-53.8,29.5l-2.13-12.33
		l-0.4-2.35l2.73-2.67l21.97-21.43l-24.51-3.57l-9.63-1.39l-5.43-11.01l-0.85-1.72c20.41-2.04,42.73-13.01,42.73-60.43V144.28
		H324.67z"/>
</g>
<path class="st1" d="M241.46,386.93l3.3,19.33l-30.54-16.07l-30.54,16.07l3.32-19.39c-21.72-4.59-40.14-14.91-54.11-30.51
	c-3.22-3.58-6.17-7.4-8.84-11.44c-13.47-20.26-20.28-46.3-20.28-77.57V144.28h58.73v123.07c0,49.16,22,60.79,42.31,63.05
	c0.14,0.01,0.28,0.03,0.42,0.04l8.99-18.19l8.99,18.21l0.85,1.72l5.43,11.01l9.63,1.39l24.51,3.57l-21.97,21.43l-2.73,2.67l0.4,2.35
	L241.46,386.93z"/>
<g>
	<polygon class="st1" points="141.72,25.21 112.35,69.27 141.72,60.46 115.29,101.57 156.41,51.65 129.97,56.05 	"/>
	<polygon class="st1" points="301.4,22.18 272.03,66.23 301.4,57.42 274.97,98.54 316.08,48.61 289.65,53.02 	"/>
</g>
</svg>
