<?xml version="1.0" encoding="utf-8"?>
<!-- Generator: Adobe Illustrator 27.8.1, SVG Export Plug-In . SVG Version: 6.00 Build 0)  -->
<svg version="1.1" id="Layer_1" xmlns="http://www.w3.org/2000/svg" xmlns:xlink="http://www.w3.org/1999/xlink" x="0px" y="0px"
	 viewBox="0 0 428.4 428.4" style="enable-background:new 0 0 428.4 428.4;" xml:space="preserve">
<style type="text/css">
	.st0{fill:#FFFFFF;}
</style>
<path class="st0" d="M305,242c1.1-0.3,2.2-0.6,3.3-1l70.8-23l-10.7-33l-72.7,23.6c-8.6,2.8-15.6,3.3-21,1.5s-9.3-6.3-11.6-13.6
	c-2.3-7.3-1.9-13.2,1.4-17.9c3.3-4.7,9.2-8.4,17.9-11.1l72.7-23.6l-10.7-32.9l-70.8,23c-1.2,0.3-2.2,0.7-3.2,1.2
	c0-1.2,0.1-2.2,0.1-3.5V57.3h-34.6v76.4c0,9.1-1.7,15.9-5.1,20.4s-8.9,6.9-16.5,6.9c-7.6,0-13.2-2.3-16.5-6.9
	c-3.4-4.6-5.1-11.4-5.1-20.4V57.3H158v74.5c0,1.2,0.1,2.3,0.1,3.5c-1.1-0.4-2.2-0.8-3.2-1.2l-70.8-23l-10.7,33l72.7,23.5
	c8.6,2.8,14.5,6.5,17.9,11.1c3.3,4.7,3.8,10.6,1.4,17.9c-2.3,7.3-6.2,11.8-11.6,13.6s-12.4,1.3-21-1.5l-72.7-23.6l-10.7,33l70.8,23
	c1.2,0.3,2.2,0.7,3.3,1c-0.7,0.9-1.4,1.7-2.2,2.7L77.4,305l28,20.3l44.9-61.8c5.3-7.3,10.7-11.8,16.1-13.5
	c5.4-1.7,11.2-0.3,17.4,4.2c6.2,4.5,9.3,9.6,9.4,15.3c0.1,5.7-2.6,12.2-7.9,19.5l-44.9,61.8l28,20.3l43.8-60.3
	c0.7-1,1.3-1.9,1.9-2.8c0.7,0.9,1.2,1.9,1.9,2.8l43.8,60.3l28-20.3L242.8,289c-5.3-7.3-8-13.8-7.9-19.5c0.1-5.7,3.2-10.8,9.4-15.3
	c6.2-4.5,12-5.9,17.4-4.2s10.8,6.2,16.1,13.5l44.9,61.8l28-20.3l-43.6-60.3C306.5,243.8,305.8,242.9,305,242z M227.4,230.6
	c-5.2,3.8-9.5,7.7-13.2,11.9c-3.6-4.2-8-8.1-13.2-11.9c-5.2-3.8-10.3-6.7-15.4-8.9c2.8-4.7,5.2-10,7.2-16.2c2-6.1,3.2-11.9,3.7-17.4
	c5.4,1.2,11.2,1.9,17.7,1.9c6.4,0,12.3-0.7,17.7-1.9c0.5,5.5,1.7,11.2,3.7,17.4c2,6.1,4.4,11.5,7.2,16.2
	C237.7,223.9,232.6,226.8,227.4,230.6z"/>
</svg>
