<?xml version="1.0" encoding="utf-8"?>
<!-- Generator: Adobe Illustrator 27.8.1, SVG Export Plug-In . SVG Version: 6.00 Build 0)  -->
<svg version="1.1" xmlns="http://www.w3.org/2000/svg" xmlns:xlink="http://www.w3.org/1999/xlink" x="0px" y="0px"
	 viewBox="0 0 3876 1116" style="enable-background:new 0 0 3876 1116;" xml:space="preserve">
<style type="text/css">
	.st0{fill:#FFFFFF;}
</style>
<g id="Layer_2_00000121990014215859559410000002681623744090384011_">
	<g id="Layer_1-2">
		<rect width="3876" height="1116"/>
	</g>
	<g id="Layer_10">
		<g>
			<path class="st0" d="M1482.1,504.8v157.5h-32.6v-18.6c-5.1,6.5-11.9,11.6-20.2,15.3c-8.3,3.7-17.1,5.6-26.4,5.6
				c-12.4,0-23.5-2.6-33.3-7.7s-17.5-12.8-23.2-22.9c-5.6-10.1-8.4-22.3-8.4-36.6v-92.6h32.3v87.8c0,14.1,3.5,24.9,10.6,32.5
				c7,7.5,16.7,11.3,28.9,11.3c12.2,0,21.9-3.8,29-11.3c7.1-7.5,10.7-18.3,10.7-32.5v-87.8L1482.1,504.8L1482.1,504.8z"/>
			<path class="st0" d="M1557.6,450.8v211.6H1525V450.8H1557.6z"/>
			<path class="st0" d="M1638.5,531.4v87.2c0,5.9,1.4,10.2,4.1,12.7c2.8,2.6,7.5,3.9,14.2,3.9h20v27.2h-25.7
				c-14.7,0-25.9-3.4-33.7-10.3s-11.7-18-11.7-33.5v-87.2H1587v-26.6h18.6v-39.2h32.9v39.2h38.3v26.6H1638.5L1638.5,531.4z"/>
			<path class="st0" d="M1758.4,509c7.9-4.5,17.3-6.7,28.2-6.7V536h-8.3c-12.8,0-22.4,3.2-29,9.7c-6.6,6.5-9.9,17.7-9.9,33.7v82.9
				h-32.6V504.8h32.6v22.9C1744.2,519.7,1750.5,513.4,1758.4,509L1758.4,509z"/>
			<path class="st0" d="M1891.7,657.8c-10,5-20.8,7.4-32.5,7.4c-10.1,0-19.3-2-27.4-6.1c-8.2-4.1-14.6-9.7-19.2-16.9
				c-4.6-7.1-6.9-15.2-6.9-24.2c0-14.5,5.3-26.5,15.9-36c10.6-9.5,26.4-14.3,47.6-14.3h44.6c-0.4-11.3-3.8-20.3-10.2-27.2
				c-6.4-6.9-14.9-10.3-25.6-10.3c-9.7,0-17.8,2.7-24.2,8c-6.4,5.3-10.4,12.8-12.2,22.3h-32c2.3-17.3,9.7-31.5,22.2-42.3
				s28.3-16.3,47.6-16.3c12.6,0,24,2.7,34.2,8.1c10.2,5.4,18.3,13.3,24.3,23.6c6,10.3,9,22.4,9,36.3v92.4h-33.2v-22.9
				C1909.1,646.7,1901.7,652.8,1891.7,657.8L1891.7,657.8z M1888.2,631.9c7.3-3.1,13.4-7.9,18.3-14.3c4.9-6.4,7.3-14.2,7.3-23.3V594
				h-44.6c-10.3,0-17.9,2-22.7,6c-4.9,4-7.3,9.1-7.3,15.4c0,6.3,2.4,11.6,7.1,15.4c4.8,3.8,11.3,5.7,19.7,5.7
				C1873.5,636.6,1880.9,635.1,1888.2,631.9L1888.2,631.9z"/>
			<path class="st0" d="M2022.5,450.8v211.6h-32.6V450.8H2022.5z"/>
			<path class="st0" d="M2208.1,504.8v157.5h-32.6v-18.6c-5.1,6.5-11.9,11.6-20.2,15.3c-8.3,3.7-17.1,5.6-26.4,5.6
				c-12.4,0-23.5-2.6-33.3-7.7s-17.5-12.8-23.2-22.9c-5.6-10.1-8.4-22.3-8.4-36.6v-92.6h32.3v87.8c0,14.1,3.5,24.9,10.6,32.5
				c7,7.5,16.7,11.3,28.9,11.3c12.2,0,21.9-3.8,29-11.3c7.1-7.5,10.7-18.3,10.7-32.5v-87.8L2208.1,504.8L2208.1,504.8z"/>
			<path class="st0" d="M2318.4,582.6l50.9,79.8h-36.9l-34-53.5l-32,53.5h-34l50.9-77.5l-50.9-80.1h36.9l34,53.5l32-53.5h34
				L2318.4,582.6z"/>
			<path class="st0" d="M2536.9,595.7h-120.4c1,12.6,5.6,22.7,14,30.3s18.7,11.4,30.9,11.4c17.5,0,29.9-7.3,37.2-22h35.2
				c-4.8,14.5-13.4,26.3-25.9,35.6c-12.5,9.2-28,13.9-46.5,13.9c-15.1,0-28.5-3.4-40.5-10.2c-11.9-6.8-21.3-16.3-28-28.6
				c-6.8-12.3-10.2-26.5-10.2-42.7s3.3-30.5,9.9-42.7c6.6-12.3,15.8-21.8,27.7-28.4c11.9-6.7,25.6-10,41-10
				c15.4,0,28.1,3.2,39.7,9.7c11.6,6.5,20.7,15.6,27.2,27.3c6.5,11.7,9.7,25.2,9.7,40.5C2538,585.6,2537.6,591,2536.9,595.7
				L2536.9,595.7z M2504,569.4c-0.2-12-4.5-21.6-12.9-28.9s-18.8-10.9-31.2-10.9c-11.3,0-20.9,3.6-28.9,10.7
				c-8,7.1-12.8,16.8-14.3,29H2504z"/>
		</g>
	</g>
</g>
<g id="Layer_3">
</g>
</svg>
